<?xml version="1.0" encoding="iso-8859-1"?>
<!-- Generator: Adobe Illustrator 19.0.0, SVG Export Plug-In . SVG Version: 6.00 Build 0)  -->
<svg version="1.1" id="Layer_1" xmlns="http://www.w3.org/2000/svg" xmlns:xlink="http://www.w3.org/1999/xlink" x="0px" y="0px"
	 viewBox="0 0 511.147 511.147" style="enable-background:new 0 0 511.147 511.147;" xml:space="preserve">
<g transform="translate(1 1)">
	<g>
		<g>
			<path d="M351,179.907c-2.56-1.707-6.827-1.707-9.387,0.853c-0.853,0-25.6,19.627-61.44,22.187
				c2.56-36.693,22.187-61.44,22.187-61.44c2.56-2.56,2.56-5.973,0.853-9.387c-1.707-3.413-5.12-5.12-8.533-4.267l-17.92,3.413
				l-15.36-18.773c-3.413-4.267-10.24-4.267-13.653,0l-15.36,18.773l-17.92-3.413c-3.413,0-6.827,0.853-8.533,4.267
				c-1.707,2.56-1.707,6.827,0.853,9.387c0,0.853,19.627,25.6,22.187,61.44c-36.693-2.56-61.44-22.187-61.44-22.187
				c-2.56-2.56-5.973-2.56-9.387-0.853s-5.12,5.12-4.267,8.533l3.413,17.92l-18.773,15.36c-2.56,1.707-3.413,4.267-3.413,6.827
				s0.853,5.12,3.413,6.827l18.773,15.36l-3.413,17.92c0,3.413,1.707,6.827,4.267,8.533c2.56,1.707,6.827,1.707,9.387-0.853
				c0.853,0,25.6-19.627,61.44-22.187c-2.56,36.693-22.187,61.44-22.187,61.44c-2.56,2.56-2.56,5.973-0.853,9.387
				c1.707,3.413,5.12,5.12,8.533,4.267l17.92-3.413l15.36,18.773c1.707,2.56,4.267,3.413,6.827,3.413c2.56,0,5.12-0.853,6.827-3.413
				l15.36-18.773l17.92,3.413c3.413,0,6.827-0.853,8.533-4.267c1.707-2.56,1.707-6.827-0.853-9.387
				c0-0.853-19.627-25.6-22.187-61.44c36.693,2.56,61.44,22.187,61.44,22.187c2.56,2.56,5.973,2.56,9.387,0.853
				c3.413-1.707,5.12-5.12,4.267-8.533l-3.413-17.92l18.773-15.36c2.56-1.707,3.413-4.267,3.413-6.827s-1.707-5.12-3.413-6.827
				l-18.773-15.36l3.413-17.92C355.267,185.027,354.414,181.613,351,179.907z M351.854,227.693l-14.507,11.947
				c-2.56,2.56-4.267,5.12-3.413,8.533l0.853,4.267c-14.507-6.827-36.693-15.36-63.147-15.36c-5.12,0-8.533,3.413-8.533,8.533
				c0,26.453,8.533,48.64,16.213,63.147l-4.267-0.853c-3.413,0-6.827,0.853-8.533,3.413l-11.947,14.507l-11.947-14.507
				c-1.707-2.56-4.267-3.413-6.827-3.413c0,0-0.853,0-0.853,0l-4.267,0.853c6.827-14.507,15.36-36.693,15.36-63.147
				c0-5.12-3.413-8.533-8.533-8.533c-26.453,0-48.64,8.533-63.147,16.213l0.853-4.267c0-3.413-0.853-6.827-3.413-8.533
				l-14.507-11.947l14.507-11.093c2.56-2.56,4.267-5.12,3.413-8.533l-0.853-4.267c14.507,6.827,36.693,15.36,63.147,15.36
				c5.12,0,8.533-3.413,8.533-8.533c0-26.453-8.533-48.64-16.213-63.147l4.267,0.853c3.413,0,6.827-0.853,8.533-3.413l11.947-14.507
				l11.093,14.507c2.56,2.56,5.12,4.267,8.533,3.413l4.267-0.853c-6.827,14.507-15.36,36.693-15.36,63.147
				c0,5.12,3.413,8.533,8.533,8.533c26.453,0,48.64-8.533,63.147-17.067l-0.853,4.267c0,3.413,0.853,6.827,3.413,8.533
				L351.854,227.693z"/>
			<path d="M457.667,51.907c-10.24-11.947-39.253-24.747-87.04-37.547c-75.947-20.48-155.307-20.48-231.253,0
				c-48.64,12.8-76.8,25.6-87.893,38.4c-0.853,0.853-1.707,3.413-1.707,5.12v119.467c0,2.56-1.707,243.2,201.387,331.947
				c0.853,0.853,2.56,0.853,3.413,0.853s2.56,0,3.413-0.853C459.374,421.4,459.374,183.32,459.374,177.347V57.88
				C459.374,56.173,458.52,53.613,457.667,51.907z M254.574,492.227C65.987,406.893,66.84,179.907,66.84,177.347V61.293
				c6.827-5.973,25.6-16.213,76.8-30.72c72.533-19.627,149.333-19.627,221.867,0c51.2,14.507,69.973,24.747,76.8,30.72v116.053
				C442.307,179.907,443.16,406.893,254.574,492.227z"/>
			<path d="M412.44,73.24c-12.8-5.12-30.72-11.093-52.907-17.067c-68.267-18.773-140.8-18.773-209.067,0
				C128.28,62.147,110.36,68.12,97.56,73.24c-3.413,0.853-5.12,4.267-5.12,7.68v97.28c0,7.68,0,201.387,157.867,284.16
				c1.707,0.853,2.56,0.853,4.267,0.853c1.707,0,2.56-0.853,4.267-1.707c157.867-81.92,157.867-275.627,157.867-284.16V80.92
				C416.707,77.507,415,74.093,412.44,73.24z M399.64,177.347c0,7.68,0,188.587-145.067,267.947
				C109.507,365.933,109.507,185.88,109.507,178.2V86.893c8.533-4.267,23.04-8.533,45.227-14.507
				c64.853-17.92,134.827-17.92,199.68,0C376.6,78.36,391.107,83.48,399.64,86.893V177.347z"/>
		</g>
	</g>
</g>
<g>
</g>
<g>
</g>
<g>
</g>
<g>
</g>
<g>
</g>
<g>
</g>
<g>
</g>
<g>
</g>
<g>
</g>
<g>
</g>
<g>
</g>
<g>
</g>
<g>
</g>
<g>
</g>
<g>
</g>
</svg>
