<svg id="_x33_0" enable-background="new 0 0 64 64" height="512" viewBox="0 0 64 64" width="512" xmlns="http://www.w3.org/2000/svg"><g><circle cx="32" cy="6" r="1"/><path d="m63 33.837c0-4.354-1.338-8.571-3.869-12.196-1.72-2.462-3.077-4.799-4.034-6.91.554.174 1.143.269 1.753.269h.327c3.211 0 5.823-2.612 5.823-5.822v-.178c0-2.137-.832-4.146-2.343-5.657s-3.52-2.343-5.657-2.343c-2.211 0-4.354.914-5.881 2.508-.96 1.003-1.607 2.203-1.915 3.492h-6.669c-.737-.856-1.704-1.519-2.844-1.854l-.455-.91c-.998-1.996-3.005-3.236-5.236-3.236s-4.238 1.24-5.236 3.236l-.455.91c-1.139.335-2.107.997-2.844 1.854h-6.668c-.308-1.289-.955-2.489-1.916-3.492-1.527-1.594-3.67-2.508-5.881-2.508-2.137 0-4.146.832-5.657 2.343s-2.343 3.52-2.343 5.657v.178c0 3.21 2.612 5.822 5.823 5.822h.327c.61 0 1.199-.095 1.753-.269-.957 2.111-2.314 4.448-4.034 6.91-2.531 3.625-3.869 7.842-3.869 12.196 0 8.216 4.716 15.337 11.574 18.842.013.01.023.021.036.03l.007-.01c1.971 1.002 4.118 1.696 6.383 2.038v2.263h-2c-1.103 0-2 .897-2 2v2c0 1.103.897 2 2 2h30c1.103 0 2-.897 2-2v-2c0-1.103-.897-2-2-2h-2v-2.263c2.265-.342 4.411-1.036 6.383-2.038l.007.01c.013-.01.023-.021.036-.03 6.858-3.505 11.574-10.626 11.574-18.842zm-12.436-28.946c1.151-1.202 2.768-1.891 4.436-1.891 1.603 0 3.109.624 4.243 1.757 1.133 1.134 1.757 2.64 1.757 4.243v.178c0 2.107-1.715 3.822-3.823 3.822h-.327c-2.122 0-3.849-1.727-3.85-3.849v-.151c0-1.103.897-1.999 2-2 1.103 0 2 .897 2 2h2c0-2.206-1.794-4-4.001-4-2.205.001-3.999 1.796-3.999 4v.151c0 1.293.427 2.485 1.14 3.454.904 2.961 2.7 6.384 5.351 10.18.133.191.25.39.377.585-.578-.234-1.207-.37-1.868-.37-2.124 0-4.026.954-5.31 2.452-.209-2.289-.495-4.742-.779-7.157-.414-3.523-.804-6.851-.912-9.338-.065-1.5.491-2.944 1.565-4.066zm-.233 46.098c-2.113 1.051-4.439 1.727-6.903 1.931-3.674-.527-6.428-3.687-6.428-7.42 0-2.481 2.019-4.5 4.5-4.5s4.5 2.019 4.5 4.5c0 .827-.673 1.5-1.5 1.5s-1.5-.673-1.5-1.5v-.5h-2v.5c0 1.93 1.57 3.5 3.5 3.5s3.5-1.57 3.5-3.5c0-2.191-1.093-4.129-2.759-5.307 1.084-.474 2.084-1.145 2.946-2.007.924-.924 1.634-2.005 2.111-3.18.192.348.399.689.632 1.016l1.223 1.711c1.208 1.693 1.847 3.687 1.847 5.767 0 2.96-1.339 5.674-3.669 7.489zm-13.331 6.011v-2h2v2zm-27-13.5c0-2.08.639-4.074 1.848-5.767l1.223-1.711c.234-.327.44-.669.632-1.016.477 1.176 1.187 2.256 2.111 3.18.862.862 1.862 1.533 2.946 2.007-1.667 1.179-2.76 3.116-2.76 5.307 0 1.93 1.57 3.5 3.5 3.5s3.5-1.57 3.5-3.5v-.5h-2v.5c0 .827-.673 1.5-1.5 1.5s-1.5-.673-1.5-1.5c0-2.481 2.019-4.5 4.5-4.5s4.5 2.019 4.5 4.5c0 3.733-2.754 6.893-6.429 7.419-2.464-.204-4.79-.88-6.903-1.931-2.329-1.814-3.668-4.528-3.668-7.488zm6.693-30.5h.307v23.522c-1.287-1.405-2-3.21-2-5.127v-.395c0-3.314.546-7.97 1.075-12.472.227-1.935.446-3.806.618-5.528zm31.232 5.528c.529 4.502 1.075 9.158 1.075 12.472v.395c0 1.918-.713 3.722-2 5.127v-23.522h.307c.172 1.722.391 3.593.618 5.528zm-9.251 34.472h-13.348c2.246-1.75 3.674-4.477 3.674-7.5 0-2.145-1.049-4.044-2.655-5.229l2.073-.69c2.319-.771 4.851-.77 7.164-.001l2.073.692c-1.607 1.184-2.655 3.084-2.655 5.228 0 3.023 1.428 5.75 3.674 7.5zm-5.674-40v24.044c-.666-.049-1.334-.05-2 0v-24.044zm12 25.093c-.627.339-1.3.583-2 .732v-25.825h2zm-4-25.093v25.967c-.679-.035-1.351-.141-2-.356v-25.611zm-4 24.945-.787-.263c-.399-.132-.804-.24-1.213-.333v-24.349h2zm-8-.595c-.408.094-.814.201-1.213.334l-.787.261v-24.945h2zm-4 1.26c-.649.216-1.321.321-2 .357v-25.967h2zm-4 .216c-.7-.15-1.373-.394-2-.733v-25.093h2zm6 16.174v2h-2v-2zm2 0h2v2h-2zm4 0h2v2h-2zm14.001-46c.001.014-.001.029 0 .043.026.609.07 1.266.125 1.957h-5.126v-.096c0-.662-.109-1.303-.31-1.904zm-7.001 1.904v.096h-5.865l3.208-3.85c1.579.564 2.657 2.049 2.657 3.754zm-8-7.904c1.469 0 2.79.816 3.447 2.131l.366.731-3.813 4.576-3.813-4.576.366-.731c.657-1.315 1.978-2.131 3.447-2.131zm-5.343 4.15 3.208 3.85h-5.865v-.096c0-1.706 1.079-3.191 2.657-3.754zm-4.347 1.85c-.201.601-.31 1.242-.31 1.904v.096h-5.126c.055-.691.098-1.348.125-1.957.001-.014-.001-.029 0-.043zm-10.451 3.605c.713-.969 1.14-2.161 1.14-3.454v-.151c0-2.204-1.794-3.999-4-4-2.205 0-3.999 1.794-3.999 4h2c0-1.103.897-2 2-2 1.103.001 2 .897 2 2v.151c0 2.122-1.728 3.849-3.85 3.849h-.327c-2.108 0-3.823-1.715-3.823-3.822v-.178c0-1.603.624-3.109 1.757-4.243 1.134-1.133 2.64-1.757 4.243-1.757 1.668 0 3.285.689 4.436 1.891 1.074 1.122 1.63 2.566 1.565 4.066-.108 2.487-.499 5.814-.912 9.338-.284 2.415-.57 4.868-.779 7.157-1.284-1.498-3.186-2.452-5.31-2.452-.662 0-1.291.136-1.869.371.126-.195.244-.395.378-.586 2.651-3.796 4.447-7.218 5.35-10.18zm-8.859 21.232c0-1.292.143-2.568.399-3.819.753 1.751 2.493 2.982 4.518 2.982h.116c1.636 0 2.967-1.319 2.967-3 0-1.654-1.346-3-3-3h-1v2h1c.551 0 1 .448 1 1.06 0 .527-.425.94-.967.94h-.116c-1.609 0-2.917-1.309-2.917-3 0-1.654 1.346-3 3-3 2.757 0 5 2.243 5 5 0 1.753-.539 3.434-1.557 4.86l-1.222 1.711c-1.453 2.033-2.221 4.429-2.221 6.929 0 1.371.236 2.7.686 3.942-3.507-3.475-5.686-8.289-5.686-13.605zm18 21.104c.387.021.771.059 1.163.059h.837v2h-2zm26.001 6.059h-30.001v-2h30zm-6.001-4v-2h.837c.393 0 .776-.038 1.163-.059v2.059zm14.314-9.558c.45-1.242.686-2.571.686-3.942 0-2.5-.768-4.896-2.221-6.929l-1.222-1.711c-1.018-1.426-1.557-3.107-1.557-4.86 0-2.757 2.243-5 5-5 1.654 0 3 1.346 3 3.083 0 1.608-1.308 2.917-2.917 2.917h-.116c-.542 0-.967-.413-.967-1 0-.552.449-1 1-1h1v-2h-1c-1.654 0-3 1.346-3 3.06 0 1.621 1.331 2.94 2.967 2.94h.116c2.02 0 3.757-1.227 4.512-3.008.26 1.26.405 2.544.405 3.845 0 5.316-2.179 10.13-5.686 13.605z"/><path d="m31 43h2v2h-2z"/><path d="m31 47h2v2h-2z"/></g></svg>