<svg viewBox="0 0 512.0013 512" xmlns="http://www.w3.org/2000/svg"><path d="m508.300781 483.015625-.417969-.546875c-19.351562-25.246094-30.007812-56.667969-30.007812-88.476562v-83.082032c0-14.953125-5.824219-29.015625-16.398438-39.589844l-56.421874-56.421874c1.917968-5.625.65625-12.101563-3.820313-16.578126l-38.488281-38.488281 64.359375-64.359375 18.964843 18.964844c2.574219 2.574219 5.992188 3.996094 9.621094 3.996094h.003906c5.730469 0 10.742188-3.457032 12.765626-8.808594l29.5625-78.097656c1.585937-4.191406 1.019531-8.882813-1.515626-12.554688-2.5625-3.707031-6.75-5.921875-11.203124-5.921875-1.652344 0-3.285157.304688-4.859376.898438l-78.097656 29.558593c-4.347656 1.648438-7.523437 5.34375-8.503906 9.886719-.976562 4.546875.40625 9.222657 3.691406 12.507813l18.964844 18.964844-64.359375 64.355468-38.488281-38.484375c-3.035156-3.035156-7.070313-4.710937-11.367188-4.710937-1.804687 0-3.558594.316406-5.21875.882812l-56.414062-56.414062c-10.574219-10.574219-24.636719-16.398438-39.59375-16.398438h-83.074219c-31.8125 0-63.234375-10.65625-88.484375-30.011718l-.429688-.328126c-7.207031-5.527343-17.441406-4.890624-23.804687 1.472657-7.019531 7.019531-7.019531 18.445312 0 25.46875l4.816406 4.816406c14.191407 14.191406 30.574219 25.394531 48.386719 33.300781l101.726562 101.726563c1.464844 1.464843 3.386719 2.195312 5.304688 2.195312s3.839844-.730469 5.304688-2.195312c2.929687-2.929688 2.929687-7.679688 0-10.609375l-80.964844-80.960938c10.953125 2.328125 22.226562 3.53125 33.683594 3.53125h72.578124c5.226563 0 10.136719 2.035156 13.828126 5.730469l52.917968 52.917969c-1.917968 5.621094-.65625 12.097656 3.816406 16.578125l38.488282 38.484375-49.035156 49.035156-65.882813-65.882812c-2.929687-2.925782-7.675781-2.925782-10.605469 0-2.929687 2.933593-2.929687 7.679687 0 10.609374l65.878906 65.882813-73.867187 73.867187c-1.882813-.929687-3.910156-1.625-6.054687-2.03125l-31.226563-5.90625c-1.394531-.265624-2.816406-.398437-4.234375-.398437-6.082031 0-11.800781 2.367187-16.101562 6.671875l-50.253907 50.253906c-3.949219 3.945313-5.378906 9.710938-3.734375 15.046875 1.648438 5.335938 6.074219 9.292969 11.5625 10.332031l30.847656 5.835938 5.839844 30.851562c1.339844 7.085938 7.5625 12.230469 14.792969 12.230469 3.984375 0 7.742187-1.5625 10.582031-4.40625l50.257813-50.253906c5.328125-5.328125 7.671875-12.929687 6.269531-20.335937l-5.90625-31.226563c-.40625-2.144531-1.105469-4.171875-2.03125-6.054687l73.867188-73.867188 187.039062 187.039062c7.90625 17.8125 19.113281 34.195313 33.304688 48.390626l4.816406 4.8125c3.398437 3.402343 7.921875 5.273437 12.734375 5.273437 4.808593 0 9.332031-1.871094 12.730469-5.273437 6.363281-6.367188 7.035156-16.550782 1.558593-23.695313zm-25.382812-453.960937-27.734375 73.28125-22.769532-22.765626c0-.003906 0-.003906-.003906-.007812 0 0-.003906-.003906-.003906-.003906l-22.769531-22.765625zm-358.285157 309.609374c1.445313-1.445312 3.449219-2.277343 5.496094-2.277343.480469 0 .96875.046875 1.441406.136719l27.980469 5.292968-53.183593 53.183594-31.992188-6.078125zm-1.554687 106.445313-.054687-7.480469c.015624-.007812.042968-.019531.054687-.019531zm52.371094-64.707031c.480469 2.527344-.320313 5.121094-2.140625 6.9375l-50.285156 50.285156-6.050782-32.015625 53.183594-53.183594zm190.925781-145.703125c-.261719.261719-.558594.316406-.761719.316406s-.5-.054687-.757812-.316406l-13.042969-13.042969 37.292969-14.25 1.519531 1.519531c.269531.269531.347656.644531.269531.988281-.265625.203126-.523437.421876-.769531.664063-.472656.472656-.863281 1-1.183594 1.550781zm-75.960938-74.441407 37.292969-14.25 19.082031 19.082032-37.296874 14.246094zm30.699219 30.699219 37.292969-14.25 19.082031 19.082031-37.296875 14.25zm-5.023437-56.566406-37.292969 14.25-1.523437-1.523437c-.417969-.417969-.417969-1.097657 0-1.519532l24.253906-24.253906c.257812-.257812.554687-.3125.757812-.3125s.5.054688.761719.3125zm-119.988282-66.886719h-72.574218c-19.949219 0-39.28125-4-57.097656-11.605468-.574219-.339844-1.179688-.601563-1.808594-.773438-16.171875-7.167969-31.046875-17.335938-43.933594-30.21875l-4.8125-4.816406c-.765625-.765625-.882812-1.660156-.882812-2.125s.117187-1.363282.882812-2.128906c1.09375-1.097657 2.769531-1.167969 4.074219-.167969l.425781.324219c27.851562 21.351562 62.515625 33.105468 97.609375 33.105468h83.078125c10.949219 0 21.242188 4.265625 28.984375 12.007813l55.25 55.253906-13.011719 13.011719-51.746094-51.746094c-6.527343-6.527344-15.207031-10.121094-24.4375-10.121094zm70.625 188.351563 49.035157-49.035157 38.484375 38.488282c3.035156 3.035156 7.074218 4.707031 11.367187 4.707031 1.804688 0 3.5625-.3125 5.21875-.882813l52.90625 52.910157c3.695313 3.695312 5.730469 8.605469 5.730469 13.828125v72.574218c0 11.460938 1.203125 22.734376 3.53125 33.6875zm229.410157 240.242187c-1.171875 1.175782-3.082031 1.175782-4.253907 0l-4.8125-4.8125c-12.871093-12.867187-23.027343-27.722656-30.195312-43.871094-.179688-.664062-.453125-1.308593-.820312-1.914062-7.589844-17.800781-11.585938-37.117188-11.585938-57.054688l.003906-72.574218c0-9.230469-3.597656-17.90625-10.125-24.4375l-51.746094-51.746094 13.011719-13.011719 55.253907 55.25c7.742187 7.742188 12.007812 18.039063 12.007812 28.984375v83.082032c0 35.089843 11.753906 69.75 33.101562 97.605468l.421876.546875c.914062 1.191407.800781 2.894531-.261719 3.953125zm0 0"/></svg>