<svg height="490pt" viewBox="-24 0 490 490.6" width="490pt" xmlns="http://www.w3.org/2000/svg"><path d="m45.65625 132.175781h16v16h-16zm0 0"/><path d="m189.65625 267.433594c0-6.824219-2.65625-13.226563-7.480469-18.050782l-5.734375-5.734374c-4.816406-4.816407-11.226562-7.472657-18.039062-7.472657h-4.609375c-3.9375 0-7.878907.929688-11.417969 2.6875l-18.613281 9.3125c-8.695313 4.351563-14.105469 13.105469-14.105469 22.832031v10.328126c0 2.753906.441406 5.464843 1.3125 8.070312l3.113281 9.328125c3.46875 10.433594 13.199219 17.441406 24.199219 17.441406 3.261719 0 6.457031-.609375 9.480469-1.824219l25.855469-10.34375c9.742187-3.902343 16.039062-13.199218 16.039062-23.6875zm-16 12.886718c0 3.910157-2.34375 7.382813-5.984375 8.832032l-25.855469 10.34375c-4.894531 1.96875-10.878906-.785156-12.558594-5.832032l-3.113281-9.328124c-.320312-.96875-.488281-1.984376-.488281-3v-10.328126c0-3.632812 2.015625-6.886718 5.265625-8.511718l18.613281-9.304688c1.3125-.664062 2.785156-1.015625 4.257813-1.015625h4.609375c2.542968 0 4.933594.992188 6.734375 2.792969l5.734375 5.734375c1.792968 1.792969 2.785156 4.183594 2.785156 6.730469zm0 0"/><path d="m233.351562 341.753906c2.855469 14.167969 4.304688 28.671875 4.304688 43.109375 0 2.703125-3.742188 4.257813-5.65625 2.34375l-10.34375-10.34375-10.335938 10.335938c-1.925781 1.9375-5.664062.367187-5.664062-2.335938 0-23.480469 3.769531-46.679687 11.191406-68.960937l4.402344-13.191406-15.175781-5.0625-4.402344 13.191406c-7.976563 23.914062-12.015625 48.824218-12.015625 74.023437 0 10.648438 8.664062 19.3125 19.3125 19.3125 4.640625 0 9.183594-1.71875 12.6875-4.75 3.496094 3.03125 8.046875 4.75 12.6875 4.75 10.648438 0 19.3125-8.664062 19.3125-19.3125 0-15.503906-1.550781-31.0625-4.617188-46.261719zm0 0"/><path d="m438.058594 81.664062c-11.265625-37.558593-40.496094-66.40625-78.203125-77.175781l-15.679688-4.4804685 15.457031 38.6484375c4 9.992188 6.023438 20.519531 6.023438 31.296875 0 22.511719-8.765625 43.679687-24.6875 59.597656l-25.871094 25.875c-.648437-.488281-1.265625-1.011719-1.921875-1.488281-26.765625-19.472656-58.414062-29.761719-91.519531-29.761719s-64.75 10.289063-91.527344 29.761719c-.65625.476562-1.273437.992188-1.914062 1.476562l-25.871094-25.871093c-15.917969-15.917969-24.6875-37.085938-24.6875-59.597657 0-10.769531 2.023438-21.304687 6.03125-31.304687l15.457031-38.640625-15.679687 4.480469c-37.695313 10.765625-66.9375 39.625-78.351563 77.695312-5 16.664063-6.128906 34.550781-3.273437 51.710938 2.296875 13.832031 6.328125 27.167969 11.816406 39.808593v86.480469h16v-57.617187c4.824219 7.007812 10.167969 13.671875 16 19.90625v113.4375l-.472656.3125c-14.726563 9.816406-23.527344 26.257812-23.527344 43.960937s8.800781 34.144531 23.527344 43.96875l8.472656 5.648438 8.472656-5.648438c14.726563-9.824219 23.527344-26.265625 23.527344-43.96875s-8.800781-34.144531-23.527344-43.96875l-.472656-.3125v-98.429687c5.152344 4.246094 10.558594 8.230468 16.234375 11.878906-.152344 2.535156-.234375 5.082031-.234375 7.640625v12.925781c0 26.714844 8.207031 52.320313 23.726562 74.058594 11.363282 15.910156 20.515626 33.289062 27.195313 51.65625l25.847656 71.09375 17.03125-17.03125 16 32 16.953125-16.953125 17.246094 25.867187 17.242188-25.867187 16.949218 16.953125 16-32 17.03125 17.03125 25.851563-71.09375c6.679687-18.367188 15.832031-35.746094 27.191406-51.65625 15.527344-21.738281 23.734375-47.34375 23.734375-74.058594v-12.925781c0-2.550781-.078125-5.097656-.230469-7.632813 5.679688-3.648437 11.078125-7.632812 16.230469-11.886718v98.429687l-.472656.3125c-14.726563 9.824219-23.527344 26.265625-23.527344 43.96875s8.800781 34.144531 23.527344 43.96875l8.472656 5.648438 8.472656-5.648438c14.726563-9.824219 23.527344-26.265625 23.527344-43.96875s-8.800781-34.144531-23.527344-43.96875l-.472656-.3125v-113.4375c5.832031-6.234375 11.175781-12.890625 16-19.90625v57.625h16v-86.480469c5.488281-12.640624 9.519531-25.984374 11.824219-39.800781 2.855469-17.160156 1.726562-35.046875-3.421875-52.230469zm-15.179688 5.113282c2.066406 6.871094 3.3125 13.992187 3.832032 21.160156-17.558594-1.144531-33.917969-8.363281-46.621094-20.714844.984375-5.65625 1.566406-11.414062 1.566406-17.269531 0-12.816406-2.414062-25.34375-7.167969-37.242187l-2.617187-6.535157c24.402344 11.945313 42.90625 33.558594 51.007812 60.601563zm-47.414062 17.6875c14.566406 11.6875 32.257812 18.414062 51.03125 19.464844-.214844 2.445312-.382813 4.910156-.792969 7.335937-2.277344 13.695313-6.566406 26.796875-12.285156 39.183594-22.496094-4.839844-43.097657-15.257813-60.273438-30.527344 10.015625-10.28125 17.511719-22.347656 22.320313-35.457031zm-109.113282 61.09375-11.414062-11.414063c1.785156-2.703125 3.269531-5.601562 4.367188-8.730469 5.128906 1.433594 10.183593 3.082032 15.113281 5.105469-1.914063 5.488281-4.65625 10.503907-8.066407 15.039063zm-22.6875-.0625 11.394532 11.390625c-7.378906 5.511719-16.058594 9.226562-25.449219 10.585937l.03125-16.136718c5.105469-1.03125 9.816406-3.0625 14.023437-5.839844zm-30.054687 21.976562c-9.328125-1.375-17.976563-5.097656-25.34375-10.59375l11.375-11.375c4.199219 2.769532 8.902344 4.800782 13.992187 5.832032zm-25.226563-33.335937-11.398437 11.398437c-3.414063-4.527344-6.144531-9.558594-8.054687-15.039062 4.917968-2.015625 9.96875-3.65625 15.085937-5.089844 1.089844 3.128906 2.585937 6.035156 4.367187 8.730469zm33.273438 50.039062c30.207031 0 56.921875-19.039062 67.335938-46.589843 4.71875 2.605468 9.34375 5.445312 13.792968 8.628906-13.625 32.480468-45.550781 53.960937-81.128906 53.960937-35.625 0-67.511719-21.472656-81.136719-53.953125 4.457031-3.183594 9.089844-6.03125 13.816407-8.648437 10.449218 27.503906 37.273437 46.601562 67.320312 46.601562zm21.871094-62.296875c-3.742188 8.472656-12.125 14.296875-21.871094 14.296875-9.734375 0-18.128906-5.824219-21.871094-14.296875 7.175782-1.125 14.488282-1.703125 21.871094-1.703125 7.390625 0 14.695312.578125 21.871094 1.703125zm-153.359375-1.957031c-17.175781 15.269531-37.773438 25.6875-60.269531 30.527344-5.714844-12.394531-10-25.488281-12.289063-39.183594-.410156-2.425781-.570313-4.882813-.792969-7.335937 18.769532-1.050782 36.457032-7.777344 51.023438-19.464844 4.816406 13.109375 12.3125 25.175781 22.328125 35.457031zm-18.71875-113.753906-2.617188 6.535156c-4.757812 11.90625-7.175781 24.433594-7.175781 37.25 0 5.855469.585938 11.613281 1.570312 17.277344-12.699218 12.355469-29.058593 19.570312-46.609374 20.714843.535156-7.265624 1.832031-14.53125 3.976562-21.679687 7.976562-26.625 26.453125-48.160156 50.855469-60.097656zm-1.792969 354.007812c0 12.175781-5.976562 23.503907-16 30.382813-10.023438-6.878906-16-18.207032-16-30.382813s5.976562-23.503906 16-30.382812c10.023438 6.878906 16 18.207031 16 30.382812zm-31.984375-195.007812c23.792969-5.863281 45.503906-17.464844 63.769531-33.894531l14.632813 14.628906c-18.175781 17.800781-30.632813 40.699218-35.753907 65.539062-17.375-12.441406-31.824218-28.210937-42.648437-46.273437zm311.984375 84.742187c0 23.363282-7.175781 45.753906-20.75 64.761719-12.203125 17.089844-22.035156 35.761719-29.210938 55.488281l-17.261718 47.488282-14.96875-14.96875-16 32-15.046875-15.046876-14.761719 22.121094-14.757812-22.136718-15.050782 15.046874-16-32-14.96875 14.96875-17.261718-47.488281c-7.175782-19.730469-17-38.402343-29.207032-55.488281-13.578125-18.992188-20.753906-41.382812-20.753906-64.746094v-12.925781c0-30.34375 12.59375-59.273437 34.152344-80.105469 17.082031 35.863282 53.417968 59.296875 93.847656 59.296875 40.382812 0 76.761719-23.441406 93.855469-59.296875 21.554687 20.832032 34.144531 49.761719 34.144531 80.105469zm13.335938-38.476562c-5.121094-24.832032-17.566407-47.730469-35.75-65.539063l14.628906-14.628906c18.265625 16.429687 39.976562 28.03125 63.769531 33.894531-10.824219 18.070313-25.265625 33.839844-42.648437 46.273438zm42.664062 148.742187c0 12.175781-5.976562 23.503907-16 30.382813-10.023438-6.878906-16-18.199219-16-30.382813 0-12.183593 5.976562-23.503906 16-30.382812 10.023438 6.878906 16 18.207031 16 30.382812zm0 0"/><path d="m381.65625 132.175781h16v16h-16zm0 0"/><path d="m300.929688 238.863281c-3.527344-1.757812-7.472657-2.6875-11.410157-2.6875h-4.605469c-6.816406 0-13.226562 2.65625-18.050781 7.480469l-5.734375 5.734375c-4.816406 4.816406-7.472656 11.226563-7.472656 18.042969v12.878906c0 10.496094 6.296875 19.792969 16.039062 23.695312l25.855469 10.34375c3.027344 1.214844 6.21875 1.824219 9.480469 1.824219 11 0 20.730469-7.007812 24.210938-17.449219l3.109374-9.328124c.863282-2.605469 1.304688-5.320313 1.304688-8.0625v-10.328126c0-9.726562-5.40625-18.480468-14.105469-22.832031zm16.726562 42.472657c0 1.023437-.167969 2.039062-.488281 3.007812l-3.109375 9.328125c-1.683594 5.046875-7.683594 7.800781-12.5625 5.832031l-25.855469-10.34375c-3.640625-1.464844-5.984375-4.929687-5.984375-8.839844v-12.878906c0-2.546875.992188-4.9375 2.792969-6.738281l5.734375-5.734375c1.800781-1.800781 4.183594-2.792969 6.730468-2.792969h4.605469c1.472657 0 2.945313.351563 4.257813 1l18.617187 9.3125c3.246094 1.625 5.261719 4.878907 5.261719 8.519531zm0 0"/><path d="m413.65625 276.175781h16v16h-16zm0 0"/><path d="m13.65625 276.175781h16v16h-16zm0 0"/></svg>