<svg height="512pt" viewBox="0 0 512 512" width="512pt" xmlns="http://www.w3.org/2000/svg"><path d="m256 477.867188c-122.332031 0-221.867188-99.535157-221.867188-221.867188s99.535157-221.867188 221.867188-221.867188 221.867188 99.535157 221.867188 221.867188-99.535157 221.867188-221.867188 221.867188zm0-426.667969c-112.921875 0-204.800781 91.878906-204.800781 204.800781s91.878906 204.800781 204.800781 204.800781 204.800781-91.878906 204.800781-204.800781-91.878906-204.800781-204.800781-204.800781zm0 0"/><path d="m446.6875 358.398438h-381.375c-3.257812 0-6.226562-1.851563-7.660156-4.777344-1.347656-2.664063-1.425782-6.238282.152344-8.773438l190.949218-306.6875c3.117188-5.007812 11.375-5.007812 14.492188 0l190.949218 306.6875c1.585938 2.542969 1.714844 5.726563.351563 8.398438-1.46875 2.851562-4.660156 5.152344-7.859375 5.152344zm-366.585938-17.066407h351.804688l-175.898438-282.519531zm0 0"/><path d="m256 477.867188c-2.945312 0-5.691406-1.519532-7.246094-4.027344l-190.949218-306.6875c-1.585938-2.542969-1.714844-5.726563-.351563-8.398438 1.460937-2.851562 4.652344-5.152344 7.859375-5.152344h381.375c3.257812 0 6.226562 1.851563 7.660156 4.777344 1.347656 2.664063 1.425782 6.238282-.152344 8.773438l-190.949218 306.6875c-1.5625 2.507812-4.300782 4.027344-7.246094 4.027344zm-175.898438-307.199219 175.898438 282.519531 175.898438-282.519531zm0 0"/><path d="m256 512c-141.160156 0-256-114.839844-256-256s114.839844-256 256-256 256 114.839844 256 256-114.839844 256-256 256zm0-494.933594c-131.746094 0-238.933594 107.1875-238.933594 238.933594s107.1875 238.933594 238.933594 238.933594 238.933594-107.1875 238.933594-238.933594-107.1875-238.933594-238.933594-238.933594zm0 0"/><path d="m256 324.265625c-25.421875 0-49.230469-11.730469-67.03125-33.046875l-24.847656-29.75c-2.644532-3.164062-2.644532-7.773438 0-10.9375l24.847656-29.75c17.8125-21.316406 41.609375-33.046875 67.03125-33.046875s49.230469 11.730469 67.03125 33.046875l24.847656 29.75c2.644532 3.164062 2.644532 7.773438 0 10.9375l-24.847656 29.75c-17.8125 21.316406-41.609375 33.046875-67.03125 33.046875zm-74.214844-68.265625 20.277344 24.277344c14.503906 17.367187 33.652344 26.921875 53.929688 26.921875 20.273437 0 39.433593-9.566407 53.929687-26.921875l20.277344-24.277344-20.277344-24.277344c-14.515625-17.367187-33.65625-26.921875-53.929687-26.921875-20.277344 0-39.433594 9.566407-53.929688 26.921875zm0 0"/><path d="m256 290.132812c-18.824219 0-34.132812-15.308593-34.132812-34.132812s15.308593-34.132812 34.132812-34.132812 34.132812 15.308593 34.132812 34.132812-15.316406 34.132812-34.132812 34.132812zm0-51.199218c-9.414062 0-17.066406 7.652344-17.066406 17.066406s7.652344 17.066406 17.066406 17.066406 17.066406-7.652344 17.066406-17.066406-7.652344-17.066406-17.066406-17.066406zm0 0"/></svg>