<?xml version="1.0"?>
<svg xmlns="http://www.w3.org/2000/svg" width="512" height="512" viewBox="0 0 128 128"><g><path d="M127.487,125.013,101.534,99.059l.662-.663a3.747,3.747,0,0,0,0-5.3l-3.6-3.6a3.839,3.839,0,0,0-5.3,0l-2.624,2.624-4.9-4.9a10.681,10.681,0,0,1-3.149-7.6V57.3a14.215,14.215,0,0,0-2.249-7.683L72.931,37.992l-.03-1.075,10.005,3.56a1.75,1.75,0,0,0,1.974-2.716L78.4,29.346l10.188-3a1.75,1.75,0,0,0,0-3.358l-10.187-3L84.88,11.57a1.75,1.75,0,0,0-1.974-2.716L72.9,12.414,73.194,1.8A1.749,1.749,0,0,0,70,.761l-6,8.76L58,.761A1.75,1.75,0,0,0,54.805,1.8L55.1,12.414,45.093,8.854A1.75,1.75,0,0,0,43.12,11.57L49.6,19.985l-10.187,3a1.75,1.75,0,0,0,0,3.358l10.187,3L43.12,37.761a1.75,1.75,0,0,0,1.973,2.716L55.1,36.917l-.03,1.076L47.627,49.616A14.224,14.224,0,0,0,45.378,57.3V79.615a10.681,10.681,0,0,1-3.149,7.6l-4.9,4.9-2.623-2.623a3.838,3.838,0,0,0-5.3,0l-3.6,3.6a3.748,3.748,0,0,0,0,5.3l.662.663L.513,125.013A1.749,1.749,0,0,0,1.75,128H28.131a1.751,1.751,0,0,0,1.238-.513l12.763-12.763.662.663a3.752,3.752,0,0,0,5.3,0l3.6-3.6a3.748,3.748,0,0,0,0-5.3l-2.867-2.867L61.919,89.589A14.27,14.27,0,0,0,64,86.686a14.3,14.3,0,0,0,2.081,2.9l13.088,14.028L76.3,106.483a3.748,3.748,0,0,0,0,5.3l3.6,3.6a3.752,3.752,0,0,0,5.3,0l.662-.662,12.763,12.762a1.75,1.75,0,0,0,1.237.513H126.25a1.749,1.749,0,0,0,1.237-2.987ZM39.657,112.25,27.406,124.5H5.975l22.966-22.967,3.321,3.322Zm9.567-2.938-3.6,3.6a.216.216,0,0,1-.353,0h0l-8.495-8.5-6.6-6.6,0,0-1.9-1.9a.249.249,0,0,1-.073-.177.246.246,0,0,1,.074-.177l3.6-3.6a.251.251,0,0,1,.354,0l8.279,8.279,4.649,4.65h0l4.062,4.062A.252.252,0,0,1,49.224,109.312Zm.293-74.124,4.412-5.732a1.75,1.75,0,0,0-.892-2.746L46.1,24.665l6.939-2.044a1.75,1.75,0,0,0,.892-2.746l-4.412-5.732,6.816,2.424a1.748,1.748,0,0,0,2.335-1.7l-.2-7.23,4.088,5.967a1.75,1.75,0,0,0,2.887,0L69.531,7.64l-.2,7.23a1.749,1.749,0,0,0,2.336,1.7l6.815-2.424-4.412,5.732a1.75,1.75,0,0,0,.893,2.746L81.9,24.665,74.963,26.71a1.751,1.751,0,0,0-.892,2.746l4.412,5.732-6.815-2.424a1.731,1.731,0,0,0-2.26,1.17,4.984,4.984,0,0,0-3.693-.206A5.08,5.08,0,0,0,64,34.7a5.08,5.08,0,0,0-1.715-.972,4.98,4.98,0,0,0-3.693.2,1.73,1.73,0,0,0-2.259-1.169ZM67.262,52.705A5.386,5.386,0,0,0,64,54.271a5.386,5.386,0,0,0-3.262-1.566,5.627,5.627,0,0,0-1.681.095,16.733,16.733,0,0,1,1.037-2.395L64,43.038l3.906,7.367A16.733,16.733,0,0,1,68.943,52.8,5.633,5.633,0,0,0,67.262,52.705Zm-7.9,34.5L46.355,101.14l-6.549-6.55,4.9-4.9a14.159,14.159,0,0,0,4.173-10.076V57.3a10.725,10.725,0,0,1,1.7-5.8L59.5,37.562a1.54,1.54,0,0,1,2.75.953,1.532,1.532,0,0,1-.252.843c-.03.046-.057.093-.082.141L57,48.767a20.285,20.285,0,0,0-2.353,9.463V73.822a1.75,1.75,0,0,0,3.5,0V58.23a2.052,2.052,0,0,1,2.258-2.041h0a2.159,2.159,0,0,1,1.844,2.2V79.867A10.713,10.713,0,0,1,59.36,87.2Zm9.28,0a10.715,10.715,0,0,1-2.89-7.334V58.394a2.159,2.159,0,0,1,1.844-2.2h0c.069-.006.137-.009.206-.009a2.051,2.051,0,0,1,2.052,2.05V73.822a1.75,1.75,0,0,0,3.5,0V58.23A20.272,20.272,0,0,0,71,48.767L66.085,39.5c-.025-.048-.054-.095-.083-.141a1.532,1.532,0,0,1-.252-.843,1.54,1.54,0,0,1,2.75-.953l1.246,1.946c.013.019.024.04.038.059L77.426,51.5a10.734,10.734,0,0,1,1.7,5.8V79.615A14.156,14.156,0,0,0,83.3,89.691l4.9,4.9-6.548,6.55Zm13.737,25.711-3.6-3.6a.252.252,0,0,1,0-.354L95.769,91.966a.24.24,0,0,1,.175-.072.243.243,0,0,1,.177.073l3.6,3.6a.251.251,0,0,1,0,.353l-1.9,1.895,0,0-13.19,13.192-1.9,1.9A.25.25,0,0,1,82.377,112.912ZM100.593,124.5l-12.25-12.25,10.716-10.716L122.025,124.5Z"/><path d="M26.685,11.1l9.585,3.969a1.75,1.75,0,0,0,1.339-3.234l-9.586-3.97A1.75,1.75,0,1,0,26.685,11.1Z"/><path d="M91.73,34.257a1.75,1.75,0,1,0-1.339,3.234l9.585,3.971a1.75,1.75,0,1,0,1.339-3.234Z"/><path d="M24.334,26.415h6.373a1.75,1.75,0,0,0,0-3.5H24.334a1.75,1.75,0,1,0,0,3.5Z"/><path d="M95.544,24.665a1.749,1.749,0,0,0,1.75,1.75h6.371a1.75,1.75,0,0,0,0-3.5H97.294A1.749,1.749,0,0,0,95.544,24.665Z"/><path d="M26.684,38.228a1.75,1.75,0,0,0,1.34,3.234l9.585-3.971a1.75,1.75,0,0,0-1.339-3.234Z"/><path d="M91.062,15.206a1.753,1.753,0,0,0,.668-.133l9.585-3.969a1.751,1.751,0,1,0-1.339-3.235l-9.585,3.97a1.75,1.75,0,0,0,.671,3.367Z"/></g></svg>
