<svg height="512pt" viewBox="-3 0 512 512.00077" width="512pt" xmlns="http://www.w3.org/2000/svg"><path d="m298.289062 258.050781c3.277344-8.199219.5-14.285156-1.523437-18.734375-2.363281-5.191406-4.597656-10.09375 1.371094-23.226562 4.351562-9.5625 4.773437-18.769532 1.257812-27.359375-6.46875-15.792969-23.769531-22.832031-25.722656-23.585938-3.394531-1.300781-7.246094-.226562-9.484375 2.640625-3.640625 4.6875-5.777344 5.316406-6.195312 5.121094-3.136719-1.074219-8.890626-12.304688-8.890626-27.429688 0-28.214843-29.515624-37.394531-30.769531-37.777343-3.621093-1.078125-7.523437.429687-9.460937 3.679687-1.941406 3.246094-1.429688 7.398438 1.246094 10.070313 3.128906 3.128906 4.1875 6.742187 3.0625 10.453125-1.429688 4.730468-7.109376 10.617187-18.753907 12.941406-10.074219 2.015625-17.296875 6.679688-21.460937 13.859375-6.328125 10.902344-2.621094 22.894531-2.175782 24.226563.246094.742187.601563 1.445312 1.046876 2.089843 5.457031 7.886719 6.324218 12.777344 5.3125 14.726563-1.53125 2.953125-8.949219 4.632812-13.460938 4.671875-3.726562 0-6.988281 2.492187-7.96875 6.082031-5.496094 20.164062-3.652344 40.695312 4.9375 54.925781 5.597656 9.273438 13.773438 15.339844 23.640625 17.527344 14.585937 3.246094 18.640625 7.292969 19.25 7.996094.796875 1.625 2.101563 2.957031 3.734375 3.773437l19.914062 9.957032c1.148438.570312 2.414063.871093 3.691407.871093.300781 0 .609375-.015625.910156-.050781 25.148437-2.792969 60.324219-32.046875 66.492187-47.449219zm-81.53125 22.941407c-3.242187-4.253907-10.886718-10.160157-28.875-14.160157-5.425781-1.203125-9.828124-4.550781-13.082031-9.941406-5.476562-9.074219-7.058593-22.699219-4.414062-36.535156 6.789062-1.085938 16.804687-4.171875 21.390625-12.933594 4.328125-8.257813 2.46875-18.539063-5.523438-30.570313-.390625-1.851562-1.03125-6.363281.992188-9.855468 1.6875-2.90625 5.191406-4.910156 10.421875-5.953125 15.957031-3.191407 27.667969-12.292969 31.316406-24.351563.179687-.578125.332031-1.15625.464844-1.734375 1.875 2.871094 3.140625 6.34375 3.140625 10.519531 0 14.546876 5.335937 38.007813 20.042968 43.058594 4.070313 1.398438 11.570313 2.199219 19.941407-5.503906 4.207031 2.539062 9.402343 6.691406 11.558593 12.011719 1.71875 4.257812 1.382813 8.902343-1.027343 14.214843-9.082031 19.972657-4.441407 30.160157-1.367188 36.902344 1.757813 3.859375 1.789063 4.320313 1.21875 5.757813-3.753906 9.378906-31.664062 33.113281-50.714843 36.816406zm0 0"/><path d="m504.132812 353.558594c-6.21875-14.667969-23.207031-21.539063-37.816406-15.351563l-12.433594 5.125c2.726563-4.128906 4.464844-8.851562 4.800782-13.925781.507812-7.699219-2.011719-15.140625-7.097656-20.949219-5.089844-5.808593-12.132813-9.285156-19.835938-9.800781-7.683594-.476562-15.144531 2.019531-20.949219 7.101562l-15.3125 13.40625c-.726562-.835937-1.390625-1.71875-2.214843-2.476562-11.757813-10.753906-30.074219-9.933594-40.839844 1.808594l-62.355469 68.148437c-.40625.445313-.601563.984375-.890625 1.488281h-84.660156l6.53125-10.882812 20.015625 10.011719c1.152343.570312 2.417969.871093 3.695312.871093.300781 0 .609375-.015624.910157-.050781 47.882812-5.316406 117.328124-62.664062 128.929687-91.679687 5.339844-13.339844.9375-23.003906-2.949219-31.53125-5.175781-11.351563-11.035156-24.214844 2.800782-54.660156 7.871093-17.316407 8.691406-33.839844 2.4375-49.125-12.054688-29.449219-46.261719-42.890626-47.714844-43.449219-3.390625-1.304688-7.25-.230469-9.484375 2.636719-5.882813 7.558593-14.558594 16.003906-22.296875 13.34375-12.789063-4.386719-24.011719-34.417969-24.011719-64.269532 0-51.371094-54.46875-68.304687-56.792969-69-3.601562-1.082031-7.519531.425782-9.460937 3.675782-1.9375 3.246093-1.425781 7.398437 1.25 10.070312 8.660156 8.664062 11.65625 19.3125 8.421875 29.984375-4.734375 15.632813-21.53125 27.757813-44.929688 32.441406-18.074218 3.613281-30.898437 11.761719-38.128906 24.214844-11.230469 19.355469-4.03125 41.554687-3.71875 42.492187.246094.742188.597656 1.445313 1.042969 2.089844 8.269531 11.941406 16.96875 28.414063 11.429687 39.035156-6.03125 11.554688-27.453125 14.152344-35.199218 14.179688-3.710938.011719-6.972657 2.507812-7.953126 6.085938-10.480468 38.417968-6.972656 78.878906 9.148438 105.597656 9.640625 15.976562 23.429688 26.625 39.957031 31.101562l-75.089843 55.070313h-55.109376c-4.558593 0-8.257812 3.695312-8.257812 8.257812v99.097657c0 2.476562 1.109375 4.820312 3.027344 6.386718 1.488281 1.222656 3.339844 1.871094 5.230468 1.871094.542969 0 1.082032-.050781 1.621094-.160156l122.164063-24.429688 72.621093 16.132813c.585938.132812 1.1875.199219 1.789063.199219h62.734375c35.824219 0 70.960938-12.273438 98.988281-34.574219l121.335938-78.023438c14.191406-6.457031 20.746093-23.144531 14.621093-37.585937zm-82.457031-35.375c2.492188-2.175782 5.710938-3.234375 8.980469-3.042969 3.304688.214844 6.320312 1.707031 8.5 4.195313 4.5 5.140624 3.980469 12.980468-1.441406 17.742187l-22.101563 21.273437c-.324219.3125-.472656.714844-.734375 1.058594l-69.675781 28.722656h-3.394531zm-57.058593 11.46875c2.234374-2.445313 5.289062-3.867188 8.585937-4.015625 3.371094-.113281 6.480469 1.003906 8.910156 3.238281.382813.34375.5625.835938.894531 1.222656l-63.839843 55.910156c-.699219.613282-1.183594 1.363282-1.621094 2.125h-6.445313zm-209.980469-1.273438c-3.027344-.816406-6.253907-1.613281-9.710938-2.378906-13.496093-3-24.359375-11.179688-32.285156-24.3125-13.09375-21.695312-16.339844-54.570312-8.808594-86.964844 11.476563-1.03125 34.175781-5.292968 43.285157-22.683594 7.421874-14.152343 3.488281-32.652343-11.691407-54.992187-.964843-3.710937-3.78125-17.121094 2.667969-28.121094 4.757812-8.121093 13.847656-13.570312 27.023438-16.207031 29.472656-5.894531 50.964843-22.289062 57.496093-43.847656 2.160157-7.136719 2.539063-14.347656 1.222657-21.277344 11.425781 8.339844 23.03125 21.738281 23.03125 41.757812 0 32.882813 12.328124 72.058594 35.167968 79.894532 8.582032 2.933594 21.570313 2.648437 36.457032-13.765625 8.820312 4.46875 26.289062 15.105469 33.148437 31.941406 4.429687 10.878906 3.683594 22.980469-2.214844 35.957031-16.953125 37.285156-8.769531 55.238282-2.796875 68.34375 3.71875 8.160156 5.25 12.039063 2.644532 18.546875-8.859376 22.152344-69.980469 74.667969-113.070313 81.097657l-16.003906-8.007813h27.542969c27.320312 0 49.550781-22.226563 49.550781-49.546875 0-4.5625-3.699219-8.257812-8.261719-8.257812h-99.097656c-1.757813 0-3.464844.558593-4.882813 1.59375l-29.542969 21.667968c-.304687-.125-.542968-.347656-.871093-.4375zm334.371093 41.113282c-1.238281 3.066406-3.59375 5.464843-6.644531 6.761718-.433593.179688-.847656.398438-1.242187.652344l-122.230469 78.601562c-.238281.15625-.46875.320313-.691406.496094-25.167969 20.136719-56.78125 31.226563-89.011719 31.226563h-61.824219l-73.441406-16.320313c-1.117187-.253906-2.28125-.265625-3.410156-.035156l-113.996094 22.796875v-80.765625h49.550781c1.761719 0 3.46875-.558594 4.882813-1.597656l121.691406-89.242188h87.09375c-3.675781 14.230469-16.625 24.773438-31.988281 24.773438h-33.03125c-2.898438 0-5.589844 1.519531-7.082032 4.007812l-24.773437 41.292969c-1.53125 2.550781-1.574219 5.726563-.105469 8.316406 1.464844 2.589844 4.210938 4.1875 7.183594 4.1875h156.90625c1.078125 0 2.148438-.214843 3.148438-.625l122.695312-50.578125c3.046875-1.289062 6.414062-1.324218 9.480469-.078125 3.070312 1.238281 5.46875 3.59375 6.761719 6.644531 1.292968 3.046876 1.320312 6.414063.078124 9.484376zm0 0"/><path d="m214.710938 214.710938 16.515624 41.292968 16.515626-24.777344zm0 0"/></svg>