<svg id="_x33_0" enable-background="new 0 0 64 64" height="512" viewBox="0 0 64 64" width="512" xmlns="http://www.w3.org/2000/svg"><g><path d="m38 13h2c0-4.411-3.589-8-8-8v2c3.309 0 6 2.691 6 6z"/><path d="m63 15.093c0-3.67-13.138-5.154-19.541-5.659-1.522-4.881-6.083-8.434-11.459-8.434s-9.937 3.553-11.459 8.433c-7.618.595-19.541 2.085-19.541 5.567 0 2.369 5.188 3.846 11.527 4.742l1.154 3.464c.963 2.891 2.783 5.354 5.263 7.126 1.757 1.255 3.74 2.076 5.831 2.444l-.853 3.411 4.078 6.116v9.162l-9 6v5.535h26v-5.535l-9-6v-9.162l4.077-6.116-.853-3.411c2.091-.367 4.075-1.189 5.831-2.444 2.479-1.771 4.3-4.235 5.263-7.126l1.138-3.413c6.228-.842 11.544-2.27 11.544-4.7zm-8.275-2.138c-1.298.573-5.202 1.224-10.831 1.635.066-.526.106-1.06.106-1.59 0-.517-.044-1.022-.107-1.521 4.401.369 8.049.903 10.832 1.476zm-22.725-9.955c5.514 0 10 4.486 10 10 0 .581-.065 1.16-.158 1.724-2.936.17-6.242.276-9.842.276-3.597 0-6.904-.111-9.841-.288-.094-.563-.159-1.138-.159-1.712 0-5.514 4.486-10 10-10zm-11.894 11.573c-5.535-.421-9.415-1.083-10.776-1.672 2.725-.543 6.328-1.054 10.777-1.422-.063.499-.107 1.004-.107 1.521 0 .523.04 1.051.106 1.573zm14.591 38.427 6 4h-17.394l6-4zm-4.697-2v-8h4v8zm-1.618-14 2 4h-.847l-2.667-4zm2.236 0h2.764l-1.382 2.764zm3 4 2-4h1.514l-2.667 4zm-3.338-6 .5-2h2.439l.5 2zm-3.01-4c-1.633 0-3.223-.319-4.703-.932l3.166-2.922 3.853 3.854zm7.144 0 3.854-3.854 3.166 2.922c-1.48.613-3.07.932-4.704.932zm-2.414-.414-4.797-4.797 4.797-4.428 4.797 4.428zm2.52-9.621c1.812-.038 4.44-.12 7.394-.293l-3.701 3.701zm-8.732 3.408-3.703-3.703c2.695.168 5.249.261 7.386.302zm-10.662-3.157-.396-1.189c.498.058 1 .113 1.505.165zm.717 2.059 3.071-2.834c.041.003.082.007.124.01l5.28 5.28-3.633 3.354c-.194-.123-.389-.245-.577-.379-1.93-1.379-3.389-3.247-4.265-5.431zm11.427 9.725h1.45l-.5 2h-1.94l.505-2.019c.162.006.322.019.485.019zm-6.27 28v-2h22v2zm16.72-26h-1.94l-.5-2h1.45c.162 0 .323-.013.485-.019zm6.174-6.295c-.188.134-.383.256-.577.379l-3.633-3.354 5.264-5.264c.051-.004.103-.008.154-.012l3.056 2.821c-.877 2.184-2.336 4.052-4.264 5.43zm4.98-7.489-1.081-.998c.49-.048.978-.099 1.465-.154zm-16.874-2.216c-16.145 0-27.952-2.368-28.97-3.983.329-.435 1.675-1.017 4.016-1.606.234.938 1.578 1.892 8.278 2.704 4.647.562 10.725.885 16.676.885 5.998 0 12.074-.306 16.672-.839 6.782-.787 8.078-1.746 8.289-2.692 2.294.592 3.677 1.183 4.008 1.637-1.017 1.615-12.567 3.894-28.969 3.894z"/><circle cx="32" cy="26" r="1"/><circle cx="45" cy="25" r="1"/><circle cx="19" cy="25" r="1"/></g></svg>