<svg height="511pt" viewBox="0 1 511 511.999" width="511pt" xmlns="http://www.w3.org/2000/svg"><path d="m116.199219 252.75h110.367187v28.777344l29.925782 36.578125 29.921874-36.578125v-28.777344h110.367188v-59.847656h-110.367188v-134.855469h-59.847656v134.855469h-110.367187zm15-44.847656h110.367187v-134.855469h29.847656v134.855469h110.367188v29.847656h-110.367188v38.421875l-14.921874 18.246094-14.925782-18.246094v-38.421875h-110.367187zm0 0"/><path d="m159.691406 215.992188h15v15h-15zm0 0"/><path d="m189.691406 215.992188h15v15h-15zm0 0"/><path d="m219.691406 215.992188h15v15h-15zm0 0"/><path d="m249.691406 215.992188h15v15h-15zm0 0"/><path d="m249.691406 245.992188h15v15h-15zm0 0"/><path d="m249.691406 185.992188h15v15h-15zm0 0"/><path d="m249.691406 155.996094h15v15h-15zm0 0"/><path d="m249.691406 125.996094h15v15h-15zm0 0"/><path d="m249.691406 95.996094h15v15h-15zm0 0"/><path d="m279.6875 215.992188h15v15h-15zm0 0"/><path d="m309.6875 215.992188h15v15h-15zm0 0"/><path d="m339.6875 215.992188h15v15h-15zm0 0"/><path d="m503.0625 346.300781c-33.367188 8.835938-69.136719.023438-94.578125-23.011719l11.425781-11.425781-5.691406-5.6875 18.664062-18.667969-33.492187-33.492187-18.664063 18.664063-5.691406-5.691407-62.761718 62.765625 5.6875 5.6875-15.078126 15.078125c-40.101562 40.105469-90.707031 67.125-146.34375 78.136719l-6.042968 1.199219v82.144531l10.9375-5.648438c69.953125-36.121093 133.839844-82.339843 190-137.441406l5.714844 5.714844 11.324218-11.324219 56.273438 56.273438c-18.0625 9.671875-33.207032 8.777343-42.722656 8.773437l-.007813 48.167969h7.503906c32.847657 0 63.726563-12.789063 86.949219-36.011719s36.015625-54.101562 36.015625-86.953125v-9.742187zm-337.570312 140.960938v-45.152344c56.183593-12.308594 107.242187-40.226563 148-80.984375l15.078124-15.074219 12.253907 12.253907c-52.121094 51.121093-111.023438 94.445312-175.332031 128.957031zm233.898437-212.03125 12.277344 12.277343-8.054688 8.058594-12.28125-12.28125zm-42.242187 78.183593-23.664063-23.660156 41.546875-41.550781 23.664062 23.664063zm108.714843 76.484376c-18.613281 18.613281-42.828125 29.59375-68.84375 31.363281v-18.214844c26.445313-2.171875 41.941407-14.46875 51.34375-21.070313l-69.285156-69.285156 18.789063-18.785156c26.746093 24.527344 63.625 35.238281 99.214843 29.046875-2.164062 25.292969-13.0625 48.785156-31.21875 66.945313zm0 0"/><path d="m88.238281 419.570312 56.269531-56.269531 11.328126 11.324219 5.714843-5.714844c13.042969 12.792969 26.644531 25.238282 40.519531 37.070313l9.734376-11.414063c-13.578126-11.574218-26.886719-23.75-39.648438-36.261718l12.253906-12.257813 15.078125 15.078125c10.664063 10.664062 22.234375 20.605469 34.386719 29.546875l8.890625-12.082031c-11.546875-8.492188-22.539063-17.9375-32.671875-28.070313l-15.074219-15.078125 5.6875-5.691406-62.761719-62.761719-5.6875 5.691407-18.667968-18.664063-33.488282 33.496094 18.664063 18.664062-5.691406 5.6875 11.425781 11.425781c-25.441406 23.03125-61.214844 31.851563-94.582031 23.011719l-9.417969-2.492187v9.742187c0 32.847657 12.789062 63.726563 36.011719 86.953125 23.226562 23.222656 54.105469 36.011719 86.953125 36.011719h7.5l-.007813-48.167969c-9.367187.003906-24.644531.90625-42.71875-8.777344zm67.597657-66.15625-41.550782-41.550781 23.664063-23.660156 41.550781 41.550781zm-54.523438-65.902343 12.28125-12.28125 8.058594 8.058593-12.28125 12.277344zm-54.195312 142.386719c-18.15625-18.160157-29.050782-41.652344-31.21875-66.945313 35.59375 6.1875 72.472656-4.519531 99.21875-29.046875l18.785156 18.785156-69.28125 69.285156c9.238281 6.488282 24.753906 18.886719 51.339844 21.070313l.003906 18.214844c-26.019532-1.769531-50.230469-12.75-68.847656-31.363281zm0 0"/><path d="m312.429688 416.207031-5.230469 14.058594c13.089843 4.867187 26.613281 8.839844 40.28125 11.84375v45.148437c-23.824219-12.792968-47.136719-26.9375-69.449219-42.132812l-8.445312 12.394531c26.214843 17.855469 53.789062 34.285157 81.953124 48.828125l10.941407 5.648438v-82.144532l-6.042969-1.195312c-14.9375-2.957031-29.746094-7.148438-44.007812-12.449219zm0 0"/><path d="m149.15625 181.683594c6.445312-37.238282 32.367188-68.949219 67.644531-82.753906l-5.464843-13.96875c-40.136719 15.707031-69.625 51.789062-76.960938 94.164062zm0 0"/><path d="m363.828125 181.683594 14.777344-2.558594c-7.335938-42.375-36.824219-78.457031-76.957031-94.164062l-5.464844 13.96875c35.277344 13.808593 61.195312 45.515624 67.644531 82.753906zm0 0"/><path d="m124.90625 157.542969 8.527344-12.335938c-42.785156-29.574219-64.371094-79.523437-59.398438-128.699219 3.828125 1.929688 6.667969 5.554688 7.445313 9.984376 7.347656 41.890624 37.832031 73.980468 75.472656 85.570312l4.414063-14.335938c-32.464844-9.996093-58.773438-37.695312-65.113282-73.824218-2.429687-13.851563-14.460937-23.902344-28.605468-23.902344h-6.398438l-1.007812 6.320312c-9.128907 57.339844 14.867187 116.804688 64.664062 151.222657zm0 0"/><path d="m431.5 26.492188c.777344-4.433594 3.617188-8.054688 7.445312-9.984376 4.976563 49.191407-16.621093 99.132813-59.398437 128.699219l8.527344 12.335938c49.835937-34.445313 73.789062-93.929688 64.667969-151.222657l-1.007813-6.320312h-6.398437c-14.148438 0-26.179688 10.050781-28.609376 23.902344-6.320312 36.039062-32.566406 63.804687-65.109374 73.824218l4.410156 14.335938c37.613281-11.574219 68.121094-43.648438 75.472656-85.570312zm0 0"/><path d="m337.230469 177.460938c-1.542969-5.417969-3.644531-10.707032-6.253907-15.71875l13.304688-6.921876c3.074219 5.910157 5.558594 12.144532 7.375 18.527344zm-10.925781-23.617188c-2.542969-3.8125-5.414063-7.441406-8.542969-10.789062l10.960937-10.238282c3.683594 3.941406 7.066406 8.214844 10.058594 12.699219zm-15.164063-17.144531c-3.476563-2.992188-7.21875-5.714844-11.125-8.089844l7.796875-12.816406c4.605469 2.800781 9.015625 6.011719 13.113281 9.535156zm0 0"/><path d="m379.925781 137.550781-8.957031-12.03125c4.605469-3.429687 9.015625-7.242187 13.109375-11.335937 5.894531-5.898438 11.179687-12.453125 15.707031-19.488282l12.613282 8.113282c-5.101563 7.933594-11.0625 15.328125-17.714844 21.980468-4.605469 4.605469-9.570313 8.898438-14.757813 12.761719zm0 0"/><path d="m475.292969 389.691406c-19.90625-.226562-39.082031-4.46875-56.996094-12.601562l6.203125-13.65625c16.003906 7.265625 33.152344 11.054687 50.964844 11.257812zm0 0"/></svg>