<svg height="512pt" viewBox="-100 0 512 512" width="512pt" xmlns="http://www.w3.org/2000/svg"><path d="m216 440h-48c-4.425781 0-8-3.574219-8-8s3.574219-8 8-8h44.6875l67.3125-67.3125v-106.441406l-86.0625 21.515625c-4.289062 1.0625-8.625-1.53125-9.699219-5.824219-1.078125-4.28125 1.53125-8.625 5.824219-9.699219l96-24c2.386719-.621093 4.914062-.070312 6.859375 1.457031 1.941406 1.511719 3.078125 3.839844 3.078125 6.304688v120c0 2.128906-.839844 4.160156-2.34375 5.65625l-72 72c-1.496094 1.503906-3.527344 2.34375-5.65625 2.34375zm0 0"/><path d="m168 440c-2.046875 0-4.097656-.785156-5.65625-2.34375l-72-72c-1.503906-1.496094-2.34375-3.527344-2.34375-5.65625v-120c0-2.464844 1.136719-4.792969 3.078125-6.304688 1.945313-1.511718 4.496094-2.0625 6.859375-1.457031l96 24c4.285156 1.074219 6.894531 5.417969 5.824219 9.699219-1.074219 4.285156-5.433594 6.871094-9.699219 5.824219l-86.0625-21.515625v106.441406l69.65625 69.65625c3.128906 3.128906 3.128906 8.183594 0 11.3125-1.558594 1.558594-3.609375 2.34375-5.65625 2.34375zm0 0"/><path d="m191.992188 328c-3.585938 0-6.839844-2.425781-7.753907-6.0625-1.078125-4.28125 1.53125-8.625 5.824219-9.699219l57.9375-14.496093v-7.503907l-54.0625 13.503907c-4.289062 1.074218-8.625-1.527344-9.699219-5.820313-1.078125-4.28125 1.53125-8.625 5.824219-9.699219l64-16c2.378906-.613281 4.90625-.0625 6.859375 1.457032 1.941406 1.527343 3.078125 3.855468 3.078125 6.320312v24c0 3.671875-2.503906 6.863281-6.0625 7.761719l-64 16c-.648438.160156-1.304688.238281-1.945312.238281zm0 0"/><path d="m192.007812 328c-.640624 0-1.296874-.078125-1.945312-.238281l-64-16c-3.558594-.898438-6.0625-4.089844-6.0625-7.761719v-24c0-2.464844 1.136719-4.792969 3.078125-6.304688 1.945313-1.503906 4.488281-2.054687 6.859375-1.457031l64 16c4.285156 1.074219 6.894531 5.417969 5.824219 9.699219-1.074219 4.285156-5.433594 6.878906-9.699219 5.824219l-54.0625-13.515625v7.507812l57.9375 14.492188c4.285156 1.074218 6.894531 5.417968 5.824219 9.699218-.914063 3.628907-4.167969 6.054688-7.753907 6.054688zm0 0"/><path d="m192 512c-4.425781 0-8-3.574219-8-8v-72c0-4.425781 3.574219-8 8-8s8 3.574219 8 8v72c0 4.425781-3.574219 8-8 8zm0 0"/><path d="m192 416c-4.425781 0-8-3.574219-8-8v-56c0-4.425781 3.574219-8 8-8s8 3.574219 8 8v56c0 4.425781-3.574219 8-8 8zm0 0"/><path d="m224 400c-4.425781 0-8-3.574219-8-8v-47.648438c0-4.421874 3.574219-8 8-8s8 3.578126 8 8v47.648438c0 4.425781-3.574219 8-8 8zm0 0"/><path d="m256 368c-4.425781 0-8-3.574219-8-8v-24c0-4.425781 3.574219-8 8-8s8 3.574219 8 8v24c0 4.425781-3.574219 8-8 8zm0 0"/><path d="m160 400c-4.425781 0-8-3.574219-8-8v-47.648438c0-4.421874 3.574219-8 8-8s8 3.578126 8 8v47.648438c0 4.425781-3.574219 8-8 8zm0 0"/><path d="m128 368c-4.425781 0-8-3.574219-8-8v-24c0-4.425781 3.574219-8 8-8s8 3.574219 8 8v24c0 4.425781-3.574219 8-8 8zm0 0"/><path d="m104 250c-4.425781 0-8-3.574219-8-8v-26c0-4.425781 3.574219-8 8-8s8 3.574219 8 8v26c0 4.425781-3.574219 8-8 8zm0 0"/><path d="m104 224c-4.425781 0-8-3.574219-8-8 0-44.824219 84.28125-69.097656 93.894531-71.71875 4.234375-1.167969 8.648438 1.34375 9.824219 5.605469 1.167969 4.265625-1.351562 8.664062-5.605469 9.832031-21.304687 5.816406-82.113281 28.664062-82.113281 56.28125 0 4.425781-3.574219 8-8 8zm0 0"/><path d="m280 250c-4.425781 0-8-3.574219-8-8v-26c0-4.425781 3.574219-8 8-8s8 3.574219 8 8v26c0 4.425781-3.574219 8-8 8zm0 0"/><path d="m280 224c-4.425781 0-8-3.574219-8-8 0-27.664062-60.808594-50.472656-82.105469-56.28125-4.261719-1.167969-6.78125-5.558594-5.613281-9.824219 1.167969-4.269531 5.597656-6.789062 9.824219-5.613281 9.613281 2.621094 93.894531 26.894531 93.894531 71.71875 0 4.425781-3.574219 8-8 8zm0 0"/><path d="m192 272c-4.425781 0-8-3.574219-8-8v-128c0-4.425781 3.574219-8 8-8s8 3.574219 8 8v128c0 4.425781-3.574219 8-8 8zm0 0"/><path d="m304 448c-3.351562 0-6.472656-2.121094-7.585938-5.472656l-24-72c-1.398437-4.191406.867188-8.726563 5.058594-10.121094 4.214844-1.414062 8.71875.867188 10.121094 5.058594l24 72c1.398438 4.191406-.867188 8.726562-5.058594 10.121094-.847656.277343-1.703125.414062-2.535156.414062zm0 0"/><path d="m192.007812 512c-2.785156 0-5.480468-1.449219-6.953124-4.03125-2.191407-3.832031-.855469-8.722656 2.976562-10.914062l112-64c3.832031-2.214844 8.730469-.855469 10.914062 2.976562 2.191407 3.832031.855469 8.722656-2.976562 10.914062l-112 64c-1.25.71875-2.617188 1.054688-3.960938 1.054688zm0 0"/><path d="m80 448c-.832031 0-1.6875-.136719-2.527344-.414062-4.183594-1.394532-6.457031-5.921876-5.058594-10.121094l24-72c1.402344-4.183594 5.898438-6.472656 10.121094-5.058594 4.183594 1.394531 6.457032 5.921875 5.058594 10.121094l-24 72c-1.121094 3.351562-4.242188 5.472656-7.59375 5.472656zm0 0"/><path d="m191.992188 512c-1.34375 0-2.710938-.335938-3.960938-1.054688l-112-64c-3.832031-2.191406-5.167969-7.082031-2.976562-10.914062 2.183593-3.832031 7.066406-5.191406 10.914062-2.976562l112 64c3.832031 2.191406 5.167969 7.082031 2.976562 10.914062-1.472656 2.582031-4.167968 4.03125-6.953124 4.03125zm0 0"/><path d="m232 96c-4.425781 0-8-3.574219-8-8 0-39.703125-32.296875-72-72-72-4.425781 0-8-3.574219-8-8s3.574219-8 8-8c48.519531 0 88 39.480469 88 88 0 4.425781-3.574219 8-8 8zm0 0"/><path d="m224 171.449219c-4.425781 0-8-3.578125-8-8v-19.449219c0-4.425781 3.574219-8 8-8s8 3.574219 8 8v19.449219c0 4.414062-3.574219 8-8 8zm0 0"/><path d="m160 171.449219c-4.425781 0-8-3.578125-8-8v-63.449219c0-4.425781 3.574219-8 8-8s8 3.574219 8 8v63.449219c0 4.414062-3.574219 8-8 8zm0 0"/><path d="m96 72c-4.425781 0-8-3.574219-8-8 0-35.289062 28.710938-64 64-64 4.425781 0 8 3.574219 8 8s-3.574219 8-8 8c-26.472656 0-48 21.527344-48 48 0 4.425781-3.574219 8-8 8zm0 0"/><path d="m48.007812 119.992188c-4.421874 0-8-3.578126-8-8 0-4.425782 3.578126-8 8-8 22.054688 0 39.992188-17.9375 39.992188-39.992188 0-4.425781 3.574219-8 8-8s8 3.574219 8 8c0 30.871094-25.121094 55.992188-55.992188 55.992188zm0 0"/><path d="m48 120c-26.472656 0-48-21.527344-48-48 0-4.425781 3.574219-8 8-8s8 3.574219 8 8c0 17.648438 14.351562 32 32 32 4.425781 0 8 3.574219 8 8s-3.574219 8-8 8zm0 0"/><path d="m56 152c-30.871094 0-56-25.128906-56-56 0-4.425781 3.574219-8 8-8s8 3.574219 8 8c0 22.054688 17.945312 40 40 40 4.425781 0 8 3.574219 8 8s-3.574219 8-8 8zm0 0"/><path d="m103.945312 152.054688c-4.425781 0-8-3.574219-8-8 0-4.421876 3.574219-8 8-8 13.261719 0 24.054688-10.789063 24.054688-24.054688 0-4.425781 3.574219-8 8-8s8 3.574219 8 8c0 22.089844-17.96875 40.054688-40.054688 40.054688zm0 0"/><path d="m80 176c-17.648438 0-32-14.351562-32-32 0-4.425781 3.574219-8 8-8s8 3.574219 8 8c0 8.824219 7.175781 16 16 16 4.425781 0 8 3.574219 8 8s-3.574219 8-8 8zm0 0"/><path d="m80 176c-4.425781 0-8-3.574219-8-8 0-17.648438 14.351562-32 32-32 4.425781 0 8 3.574219 8 8s-3.574219 8-8 8c-8.824219 0-16 7.175781-16 16 0 4.425781-3.574219 8-8 8zm0 0"/><path d="m224 151.992188c-4.425781 0-8-3.578126-8-8 0-4.425782 3.574219-8 8-8 13.230469 0 24-10.769532 24-24 0-4.425782 3.574219-8 8-8s8 3.574218 8 8c0 22.054687-17.945312 40-40 40zm0 0"/><path d="m232 96c-4.425781 0-8-3.574219-8-8s3.574219-8 8-8c8.824219 0 16-7.175781 16-16 0-4.425781 3.574219-8 8-8s8 3.574219 8 8c0 17.648438-14.351562 32-32 32zm0 0"/><path d="m256 119.992188c-4.425781 0-8-3.578126-8-8v-47.992188c0-4.425781 3.574219-8 8-8s8 3.574219 8 8v47.992188c0 4.421874-3.574219 8-8 8zm0 0"/><path d="m8 104c-4.425781 0-8-3.574219-8-8v-24c0-4.425781 3.574219-8 8-8s8 3.574219 8 8v24c0 4.425781-3.574219 8-8 8zm0 0"/><path d="m160 108c-4.425781 0-8-3.574219-8-8 0-2.199219-1.800781-4-4-4s-4 1.800781-4 4c0 4.425781-3.574219 8-8 8s-8-3.574219-8-8c0-11.03125 8.96875-20 20-20s20 8.96875 20 20c0 4.425781-3.574219 8-8 8zm0 0"/><path d="m136 120c-4.425781 0-8-3.574219-8-8v-12c0-4.425781 3.574219-8 8-8s8 3.574219 8 8v12c0 4.425781-3.574219 8-8 8zm0 0"/></svg>