<?xml version="1.0" encoding="iso-8859-1"?>
<!-- Generator: Adobe Illustrator 19.0.0, SVG Export Plug-In . SVG Version: 6.00 Build 0)  -->
<svg version="1.1" id="Capa_1" xmlns="http://www.w3.org/2000/svg" xmlns:xlink="http://www.w3.org/1999/xlink" x="0px" y="0px"
	 viewBox="0 0 512 512" style="enable-background:new 0 0 512 512;" xml:space="preserve">
<g>
	<g>
		<path d="M422.325,177.508c-0.75-10.65-7.617-25.325-36.025-34.717c-26.861-8.893-59.677-6.941-86.053-2.683
			c1.702-3.076,3.089-6.316,4.137-9.672c0.045-0.15,0.145-0.266,0.182-0.42c0.026-0.105-0.009-0.205,0.012-0.31
			c1.788-6.096,2.671-12.421,2.621-18.773c0.734-16.007-5.745-31.499-17.654-42.219c5.871-7.416,9.083-16.589,9.121-26.047
			C298.667,19.103,279.564,0,256,0s-42.667,19.103-42.667,42.667c0.038,9.459,3.25,18.631,9.121,26.047
			c-11.909,10.72-18.388,26.213-17.654,42.219c-0.05,6.352,0.833,12.678,2.621,18.773c0.021,0.105-0.013,0.205,0.012,0.31
			c0.037,0.154,0.137,0.27,0.182,0.42c1.049,3.356,2.435,6.597,4.139,9.674c-26.38-4.259-59.199-6.212-86.054,2.682
			c-28.408,9.392-35.275,24.067-36.025,34.717c-1.35,19.158,15.467,34.883,26.383,40.3c12.605,6.617,27.91,5.279,39.175-3.425
			c3.858-3.323,6.625-7.731,7.942-12.65c0.687-0.05,1.365-0.187,2.017-0.408c0.097-0.03,4.101-1.336,9.823-2.882l4.669,9.332
			l7.376,29.582c-21.082,8.945-36.269,27.872-40.432,50.392c-4.164,22.519,3.251,45.626,19.74,61.518l56.468,54.409l0.04,0.166
			c0.057,0.242,0.127,0.482,0.208,0.717l24.542,100.925c0.93,3.823,4.354,6.515,8.288,6.517c3.935,0.002,7.361-2.686,8.295-6.508
			l23.866-97.778l59.551-61.539c12.667-12.985,19.619-30.494,19.309-48.632c-0.31-18.138-7.856-35.399-20.959-47.944
			c-6.01-5.783-13.022-10.424-20.693-13.697l7.035-28.128l4.669-9.332c5.722,1.546,9.726,2.852,9.823,2.882
			c0.652,0.221,1.33,0.358,2.017,0.408c1.316,4.919,4.084,9.327,7.942,12.65c6.093,5.018,13.783,7.688,21.675,7.525
			c6.071-0.002,12.06-1.405,17.5-4.1C406.858,212.392,423.675,196.667,422.325,177.508z M256,17.067c14.138,0,25.6,11.462,25.6,25.6
			s-11.461,25.6-25.6,25.6s-25.6-11.461-25.6-25.6C230.415,28.535,241.868,17.082,256,17.067z M235.622,79.917
			c12.626,7.222,28.131,7.222,40.756,0c9.458,7.408,14.614,19.034,13.755,31.017c-0.048,2.128-0.235,4.251-0.561,6.354
			c-17-5.295-25.039-11.715-25.039-14.888c0-4.713-3.82-8.533-8.533-8.533s-8.533,3.82-8.533,8.533
			c0,3.181-8.077,9.631-25.179,14.935c-0.272-2.123-0.413-4.261-0.421-6.402C221.008,98.95,226.164,87.325,235.622,79.917z
			 M227.778,133.521c10.277-2.752,19.882-7.58,28.222-14.187c8.333,6.601,17.929,11.427,28.197,14.179
			c-3.259,5.332-8.091,9.523-13.83,11.995c-0.93,0.333-1.793,0.828-2.551,1.461c-5.139,1.344-9.258,2.539-11.816,3.322
			c-2.558-0.782-6.676-1.976-11.813-3.319c-0.758-0.635-1.623-1.131-2.554-1.464v0C235.873,143.062,231.027,138.869,227.778,133.521
			z M255.933,467.417l-16.392-67.425c-0.057-0.237-0.127-0.47-0.208-0.7l-22.908-94.483l-2.329-9.931
			c10.885-2.945,22.095-4.524,33.37-4.701v51.157c0,4.713,3.82,8.533,8.533,8.533s8.533-3.82,8.533-8.533V293.18
			c10.694,3.215,21.879,4.481,33.02,3.736L255.933,467.417z M349.867,297.783c0.256,13.621-4.968,26.775-14.5,36.508l-39.281,40.597
			l15.611-63.959c7.135-6.511,13.622-13.699,19.369-21.463c2.009-2.745,2.199-6.421,0.483-9.358c-1.682-2.978-5.012-4.627-8.4-4.158
			c-0.225,0.025-0.942,0.15-2.058,0.417c-6.141,1.522-12.39,2.573-18.692,3.142c-11.761,1.55-23.719,0.451-35-3.217
			c-3.319-1.153-6.736-2.004-10.208-2.542c-0.359-0.051-0.794-0.032-1.16-0.077L256,273.667l-0.016,0.003
			c-16.769-1.23-33.62,0.66-49.701,5.572l-2.942,0.808c-0.242,0.043-0.481,0.098-0.717,0.167c-10.4,2.975-17.658,5.767-17.967,5.883
			c-3.441,1.327-5.64,4.715-5.45,8.398c0.19,3.683,2.724,6.827,6.283,7.794c4.768,1.303,9.449,2.907,14.014,4.803l15.868,65.69
			l-37.156-35.802c-13.187-12.712-18.571-31.503-14.116-49.269c4.454-17.766,18.067-31.795,35.691-36.781
			c4.275-1.287,8.711-1.966,13.175-2.017c13.642-0.313,26.836,4.884,36.6,14.417c3.385,3.265,8.775,3.176,12.05-0.2
			c13.293-13.72,33.098-18.937,51.424-13.545l0.026,0.012l0.022,0.003C334.501,255.986,349.355,275.446,349.867,297.783z
			 M256,213.333c-4.713,0-8.533,3.82-8.533,8.533v18.823c-13.343-7.547-28.838-10.385-43.99-8.057l-7.46-29.899
			c-0.157-0.604-0.375-1.19-0.65-1.75l-3.198-6.397c4.296-0.784,8.649-1.217,13.015-1.295c7.965,0.306,15.893,1.248,23.708,2.817
			c9.717,1.75,18.9,3.85,23.083,4.833c1.245,0.624,2.635,0.903,4.025,0.808c1.388,0.07,2.772-0.207,4.025-0.808
			c15.347-3.896,31.003-6.455,46.792-7.65c4.366,0.077,8.719,0.51,13.015,1.295l-3.198,6.397c-0.276,0.558-0.492,1.145-0.642,1.75
			l-7.135,28.536c-15.29-2.318-30.915,0.615-44.323,8.321v-17.724C264.533,217.154,260.713,213.333,256,213.333z M388.358,202.525
			L388.358,202.525c-6.472,3.435-14.308,3.038-20.4-1.033c-3.35-2.908-3.967-7.633-1.842-14.05c1.242-3.747-0.249-7.858-3.605-9.937
			c-3.356-2.079-7.7-1.585-10.503,1.195l-4.9,4.858c-13.07-4.123-26.607-6.587-40.292-7.333
			c-17.149,1.177-34.157,3.899-50.817,8.133c-4.325-1.025-13.808-3.2-24.083-5.05c-8.811-1.76-17.753-2.791-26.733-3.083
			c-13.685,0.747-27.221,3.21-40.292,7.333l-4.9-4.858c-2.802-2.782-7.148-3.277-10.504-1.197s-4.847,6.191-3.604,9.939
			c2.125,6.417,1.508,11.142-1.842,14.05c-6.091,4.075-13.929,4.472-20.4,1.033c-7.35-3.65-17.617-14.225-16.942-23.808
			c0.7-9.875,13.633-16.175,24.367-19.725c45.633-15.1,115.058,6.067,122.067,8.283c2.492,0.952,5.279,0.741,7.6-0.575
			c13.233-4,77.25-21.917,120.2-7.708c10.733,3.55,23.667,9.85,24.367,19.725C405.975,188.3,395.708,198.875,388.358,202.525z"/>
	</g>
</g>
<g>
</g>
<g>
</g>
<g>
</g>
<g>
</g>
<g>
</g>
<g>
</g>
<g>
</g>
<g>
</g>
<g>
</g>
<g>
</g>
<g>
</g>
<g>
</g>
<g>
</g>
<g>
</g>
<g>
</g>
</svg>
