<?xml version="1.0"?>
<svg xmlns="http://www.w3.org/2000/svg" xmlns:xlink="http://www.w3.org/1999/xlink" version="1.1" id="Layer_1" x="0px" y="0px" viewBox="0 0 511.999 511.999" style="enable-background:new 0 0 511.999 511.999;" xml:space="preserve" width="512px" height="512px" class=""><g><g>
	<g>
		<path d="M321.803,253.305V209.04c10.381-1.705,18.335-10.716,18.335-21.572c0-12.069-9.82-21.888-21.888-21.888h-13.613    c20.808-20.239,32.138-51.021,33.037-90.465c0.841-36.932-7.603-68.21-7.962-69.523c-0.022-0.081-0.052-0.157-0.076-0.236    c-0.03-0.098-0.06-0.197-0.094-0.293c-0.054-0.154-0.116-0.303-0.178-0.452c-0.026-0.062-0.051-0.125-0.079-0.185    c-0.723-1.576-1.952-2.827-3.447-3.594c-0.005-0.003-0.011-0.005-0.016-0.008c-0.213-0.109-0.431-0.208-0.655-0.296    c-0.005-0.002-0.009-0.004-0.014-0.006c-0.919-0.361-1.917-0.544-2.948-0.518c-0.002,0-0.004,0-0.006,0    c-0.006,0-0.012,0.001-0.018,0.001c-0.162,0.005-0.323,0.008-0.487,0.023c-0.071,0.006-0.139,0.02-0.209,0.028    c-0.052,0.006-0.101,0.013-0.153,0.02c-0.194,0.027-0.385,0.061-0.575,0.101c-0.055,0.012-0.109,0.024-0.164,0.038    c-0.188,0.046-0.371,0.097-0.552,0.156c-0.049,0.016-0.097,0.03-0.146,0.048c-0.196,0.068-0.387,0.143-0.575,0.226    c-0.028,0.012-0.057,0.023-0.085,0.036c-0.887,0.404-1.681,0.971-2.346,1.666c-0.01,0.011-0.02,0.022-0.03,0.033    c-0.15,0.159-0.293,0.324-0.43,0.496c-0.021,0.027-0.043,0.056-0.064,0.083c-0.122,0.158-0.237,0.32-0.347,0.488    c-0.025,0.039-0.05,0.077-0.074,0.116c-0.1,0.16-0.195,0.323-0.283,0.492c-0.025,0.048-0.051,0.094-0.075,0.143    c-0.082,0.163-0.157,0.331-0.227,0.501c-0.022,0.054-0.047,0.106-0.067,0.16c-0.067,0.173-0.126,0.351-0.18,0.529    c-0.016,0.053-0.034,0.103-0.05,0.156c-0.06,0.215-0.112,0.433-0.152,0.655c-0.003,0.017-0.008,0.033-0.011,0.052    c-0.041,0.227-0.072,0.456-0.092,0.69c-2.199,25.283-27.115,53.159-43.027,68.565c1.401-9.201,3.751-18.763,5.019-23.272    c0.843-2.999-0.229-6.21-2.705-8.101c-2.476-1.89-5.856-2.08-8.527-0.477c-2.233,1.34-54.854,33.244-67.835,68.94    c-8.198,22.544,0.437,41.195,9.262,52.984h-13.246c-12.068,0-21.888,9.819-21.888,21.888c0,11.445,8.835,20.851,20.041,21.793    v43.822c-11.205,0.943-20.041,10.349-20.041,21.794c0,12.069,9.82,21.888,21.888,21.888h24.557L235.147,445.8h-1.437    c-9.713,0-17.616,7.902-17.616,17.616c0,9.713,7.902,17.616,17.616,17.616h1.942c-0.996,2.554-1.548,5.328-1.548,8.23    c0,12.537,10.201,22.738,22.738,22.738c12.538,0,22.738-10.201,22.738-22.738c0-2.902-0.553-5.676-1.548-8.23h1.78    c9.713,0,17.616-7.903,17.616-17.616s-7.903-17.616-17.616-17.616h-2.833l16.843-149.038h24.428    c12.068,0,21.888-9.819,21.888-21.888C340.138,264.021,332.184,255.012,321.803,253.305z M322.245,59.829    c1.624,36.671-4.733,83.67-42.579,105.752h-25.335c2.57-6.736,10.198-20.236,32.758-43.375    C305.714,103.105,316.269,80.169,322.245,59.829z M212.022,117.794c7.115-19.565,29.983-38.947,45.703-50.471    c-1.682,9.105-2.95,19.565-1.879,27.075c0.387,2.708,2.199,4.999,4.745,6.001c2.546,1.001,5.432,0.558,7.561-1.161    c1.389-1.122,21.133-17.24,37.974-39.187c-5.594,17.271-14.791,36.019-29.925,51.54c-26.571,27.254-35.473,44.031-37.738,53.99    H227.49C221.511,160.208,203.419,141.449,212.022,117.794z M187.063,187.469c0-3.684,2.997-6.681,6.681-6.681h52.03    c0.007,0,0.014,0.001,0.021,0.001c0.008,0,0.017-0.001,0.025-0.001h35.849c0.007,0,0.015,0.001,0.022,0.001    c0.008,0,0.016-0.001,0.024-0.001h36.534c3.684,0,6.681,2.997,6.681,6.681c0,3.683-2.997,6.68-6.681,6.68h-4.051H199.5h-5.756    C190.06,194.149,187.063,191.152,187.063,187.469z M306.596,209.356v43.635h-99.492v-43.635H306.596z M256.841,496.796    c-4.154,0-7.531-3.379-7.531-7.531c0-4.154,3.378-7.531,7.531-7.531s7.531,3.379,7.531,7.531    C264.372,493.417,260.994,496.796,256.841,496.796z M279.812,461.01c1.306,0,2.409,1.103,2.409,2.409    c0,1.306-1.103,2.409-2.409,2.409h-46.103c-1.306,0-2.409-1.103-2.409-2.409c0-1.306,1.103-2.409,2.409-2.409h9.947h24.812    H279.812z M261.675,445.803h-11.227l-16.843-149.038h44.914L261.675,445.803z M318.25,281.559H287.03h-61.936h-31.349    c-3.684,0-6.681-2.997-6.681-6.681c0-3.684,2.997-6.681,6.681-6.681h5.756h114.699h4.051c3.684,0,6.681,2.997,6.681,6.681    C324.931,278.562,321.934,281.559,318.25,281.559z" data-original="#000000" class="active-path" fill="#000000"/>
	</g>
</g></g> </svg>
