<svg id="_x33_0" enable-background="new 0 0 64 64" height="512" viewBox="0 0 64 64" width="512" xmlns="http://www.w3.org/2000/svg"><g><path d="m44 23c1.654 0 3-1.346 3-3s-1.346-3-3-3-3 1.346-3 3 1.346 3 3 3zm0-4c.551 0 1 .448 1 1s-.449 1-1 1-1-.448-1-1 .449-1 1-1z"/><path d="m37.414 32 1.636-1.636c.11.811.464 1.563 1.053 2.153.957.957 2.228 1.483 3.667 1.483 1.003 0 1.974-.294 2.808-.851 1.378-.918 2.243-2.401 2.391-4.031l3.148 2.179 3.18-3.18-4.495-6.493c.125-.522.198-1.064.198-1.624 0-.158-.013-.313-.024-.469l1.094-.834c1.321-.991 3.046-1.27 4.614-.749l.948.316 5.949-17.846-17.846 5.949.316.949c.522 1.567.243 3.292-.745 4.608l-.836 1.099c-.156-.01-.311-.023-.47-.023-.56 0-1.102.073-1.624.198l-6.493-4.495-3.18 3.18 2.179 3.148c-1.63.148-3.113 1.013-4.032 2.391-.556.834-.85 1.805-.85 2.895 0 1.353.527 2.624 1.482 3.578.589.589 1.341.944 2.153 1.055l-1.635 1.636-6.586-6.586 1.914-1.914c1.078-1.077 1.646-2.568 1.558-4.091-.06-1.043-.5-2.023-1.239-2.763-.795-.794-1.852-1.232-2.976-1.232h-.671c-1.654 0-3 1.346-3 3s1.346 3 3 3h1v-2h-1c-.551 0-1-.448-1-1s.449-1 1-1h.671c.59 0 1.144.229 1.561.646.392.392.625.911.656 1.464.056.953-.3 1.887-.975 2.562l-1.913 1.914-18.155-18.155-.677 1.014c-1.418 2.127-2.168 4.604-2.168 7.16 0 3.725 1.886 7.127 5.045 9.102l10.359 6.475-1.732 1.732c-1.078 1.077-1.646 2.568-1.558 4.091.06 1.043.5 2.023 1.239 2.763.795.795 1.852 1.232 2.976 1.232h.671c1.654 0 3-1.346 3-3s-1.346-3-3-3h-1v2h1c.551 0 1 .448 1 1s-.449 1-1 1h-.671c-.59 0-1.144-.229-1.561-.646-.392-.392-.625-.911-.656-1.464-.056-.953.3-1.887.975-2.562l1.913-1.914 6.586 6.586-24.586 24.586c-.645.645-1 1.503-1 2.414s.355 1.769 1 2.414l.585.586c.645.645 1.502 1 2.415 1s1.77-.355 2.414-1l24.586-24.586 24.585 24.586c.645.645 1.502 1 2.415 1s1.77-.355 2.414-1l.586-.586c.645-.646 1-1.503 1-2.414s-.355-1.769-1-2.414zm.521-8.521c.619 1.074 1.512 1.968 2.586 2.586l-1.521 1.521-2.586-2.586zm9.065 5.145c0 1.152-.572 2.222-1.532 2.861-.504.337-1.092.515-1.785.515-.818 0-1.587-.318-2.165-.896-.334-.334-.518-.778-.518-1.25 0-.47.383-.854.854-.854.326 0 .619.181.764.473l.487.975 1.789-.895-.487-.975c-.411-.822-1.18-1.356-2.061-1.51l.218-.218c.464.098.944.15 1.436.15.56 0 1.102-.073 1.624-.198l1.376.953zm5.703-.741-.82.82-4.087-2.83c.83-.539 1.539-1.247 2.077-2.077zm3.642-12.08c-1.911-.346-3.898.112-5.48 1.299l-.375.286c-.228-.565-.53-1.091-.891-1.571l10.113-10.115zm-9.442-2.673c1.183-1.577 1.64-3.564 1.294-5.475l10.101-3.367-10.113 10.114c-.481-.36-1.007-.663-1.572-.891zm2.097 6.87c0 2.757-2.243 5-5 5s-5-2.243-5-5 2.243-5 5-5 5 2.243 5 5zm-12.883-8.703 4.087 2.83c-.83.539-1.539 1.247-2.077 2.077l-2.83-4.087zm-.695 8.296-.975-.487-.895 1.789.975.487c.292.145.473.438.473.764 0 .47-.383.854-.854.854-.472 0-.916-.184-1.249-.518-.579-.578-.897-1.346-.897-2.253 0-.606.178-1.193.514-1.698.64-.959 1.709-1.531 2.861-1.531h.87l.953 1.376c-.125.522-.198 1.064-.198 1.624 0 .492.052.972.149 1.436l-.218.218c-.154-.881-.687-1.65-1.509-2.061zm-.422 6.821 2.586 2.586-1.586 1.586-2.586-2.586zm-6.919 4.091.626-4.383 1.878 1.878zm-1.788-1.626-1.233-1.233.646-4.525 1.233 1.233zm-20.087-25.259 16.38 16.38-1.086 1.086-15.926-15.927c.175-.526.376-1.043.632-1.539zm2.899 12.392c-2.57-1.608-4.105-4.376-4.105-7.407 0-.378.028-.752.067-1.125l15.019 15.02-.248.248zm14.814 5.483-.626 4.384-1.879-1.879zm-17.919 39.091c-.533.535-1.465.535-2 0l-.585-.586c-.268-.268-.415-.622-.415-1s.147-.732.414-1l28.586-28.586 2.586 2.586zm54.586-.586-.586.586c-.533.535-1.465.535-2 0l-24.586-24.586 2.586-2.586 24.585 24.586c.268.268.415.622.415 1s-.147.732-.414 1z"/></g></svg>